<svg width="143" height="143" viewBox="0 0 143 143" fill="none" xmlns="http://www.w3.org/2000/svg">
<path d="M8.68613 0.474808C5.44629 1.61992 2.76504 4.0498 1.17305 7.23378C0.139648 9.30058 0.139648 9.35645 0.139648 12.8197C0.139648 16.2551 0.167578 16.3947 1.08926 18.2939C2.2623 20.668 4.52461 23.0141 6.75898 24.1033L8.35098 24.8574L8.43477 33.1805L8.51855 41.4756L9.4123 43.3189C11.0602 46.6984 13.6576 48.9607 17.065 50.0221C18.4895 50.4689 19.6625 50.5527 24.3547 50.5527C28.7117 50.5527 29.9127 50.6365 29.801 50.8879C28.8793 52.9547 27.3432 56.9766 26.8684 58.6523C26.198 60.9426 25.416 65.2438 25.416 66.5006V67.3105H16.8975H8.37891V64.4338C8.37891 62.1156 8.26719 61.4453 7.84824 60.775C6.98242 59.4902 5.92109 58.9316 4.18945 58.9316C2.45781 58.9316 1.39648 59.4902 0.530664 60.775C0.0279297 61.5291 0 62.2553 0 71.5C0 80.7447 0.0279297 81.4709 0.530664 82.225C1.39648 83.5098 2.45781 84.0684 4.18945 84.0684C5.92109 84.0684 6.98242 83.5098 7.84824 82.225C8.26719 81.5547 8.37891 80.8844 8.37891 78.5383V75.6895H16.8695H25.3602L25.5557 76.8625C26.3098 81.4709 29.2703 87.5037 32.5102 91.0508L33.6553 92.3076L25.5557 92.4473L17.4561 92.5869L15.501 93.5365C12.9314 94.7934 10.725 96.9998 9.46816 99.5693L8.51855 101.524L8.43477 109.82L8.35098 118.143L6.75898 118.897C4.52461 119.986 2.2623 122.332 1.08926 124.706C0.167578 126.605 0.139648 126.745 0.139648 130.18C0.139648 133.644 0.139648 133.699 1.17305 135.766C3.49121 140.458 7.51309 143 12.5963 143C15.1379 143 17.2047 142.441 19.1318 141.296C20.8355 140.235 22.9303 137.861 23.9637 135.766C24.9971 133.699 24.9971 133.644 24.9971 130.18C24.9971 126.745 24.9691 126.605 24.0754 124.762C22.9023 122.388 20.5562 119.986 18.3498 118.869L16.7299 118.059L16.8137 111.048C16.8975 104.401 16.9254 103.982 17.5119 103.061C17.8471 102.53 18.5453 101.832 19.048 101.524C19.9139 100.994 20.5562 100.966 30.9182 100.882L41.8387 100.798L41.9504 104.513C42.0342 108.116 42.0621 108.283 43.0396 110.322C44.3803 113.059 46.3912 115.07 49.1562 116.411C51.1951 117.416 51.3348 117.444 55.0773 117.528L58.8758 117.64L58.9875 110.825C59.0713 103.256 59.183 102.809 60.9705 101.692C62.0877 100.994 63.9031 100.91 65.0762 101.524C65.4951 101.748 66.1654 102.39 66.5285 102.977C67.143 104.01 67.1709 104.262 67.2547 110.825L67.3664 117.584H71.5H75.6336L75.7453 110.797C75.8291 103.256 75.9408 102.809 77.7283 101.692C78.8455 100.994 80.6609 100.91 81.834 101.524C82.2529 101.748 82.9232 102.39 83.2863 102.977C83.9008 104.01 83.9287 104.262 84.0125 110.825L84.1242 117.64L88.0623 117.528C91.9166 117.444 92.0842 117.416 93.9834 116.495C96.5529 115.238 98.7594 113.031 100.016 110.462C100.91 108.563 100.966 108.367 101.05 104.653L101.161 100.798L112.082 100.882C122.779 100.966 123.058 100.994 124.008 101.58C125.991 102.809 126.103 103.2 126.186 111.076L126.298 118.115L124.678 118.897C122.416 119.986 120.126 122.304 118.953 124.706C118.031 126.605 118.003 126.745 118.003 130.18C118.003 133.644 118.003 133.699 119.036 135.766C121.354 140.458 125.376 143 130.46 143C133.001 143 135.068 142.441 136.995 141.296C138.699 140.235 140.794 137.861 141.827 135.766C142.86 133.699 142.86 133.644 142.86 130.18C142.86 126.745 142.832 126.605 141.939 124.762C140.794 122.416 138.42 119.986 136.241 118.897L134.649 118.087L134.565 109.82L134.481 101.524L133.532 99.5693C132.275 96.9998 130.069 94.7934 127.499 93.5365L125.544 92.5869L117.361 92.5031L109.177 92.4193L110.602 90.8553C114.037 87.0848 116.411 82.4205 117.305 77.5887L117.64 75.6895H126.13H134.621V78.5383C134.621 80.8844 134.733 81.5547 135.152 82.225C136.018 83.5098 137.079 84.0684 138.811 84.0684C140.542 84.0684 141.604 83.5098 142.469 82.225C142.972 81.4709 143 80.7447 143 71.5C143 62.2553 142.972 61.5291 142.469 60.775C141.604 59.4902 140.542 58.9316 138.811 58.9316C137.079 58.9316 136.018 59.4902 135.152 60.775C134.733 61.4453 134.621 62.1156 134.621 64.4338V67.3105H126.27C116.774 67.3105 117.779 67.6178 117.444 64.6572C117.053 61.2498 115.266 55.4684 113.227 50.9158C113.115 50.6645 114.651 50.5807 119.316 50.4969L125.544 50.4131L127.499 49.4635C130.069 48.2066 132.275 46.0002 133.532 43.4307L134.481 41.4756L134.621 33.1805L134.761 24.8854L136.101 24.1592C139.257 22.5113 141.408 20.0256 142.441 16.8695C142.972 15.3334 143.056 14.5514 142.944 12.1773C142.86 9.55196 142.777 9.13301 141.827 7.23378C139.509 2.51367 135.515 0 130.432 0C125.404 0 121.354 2.56953 119.036 7.23378C118.003 9.30058 118.003 9.35645 118.003 12.8197C118.003 16.2551 118.031 16.3947 118.953 18.2939C120.126 20.6959 122.416 23.0141 124.678 24.1033L126.298 24.8854L126.186 31.9236C126.103 39.7998 125.991 40.1908 124.008 41.4197C123.086 42.0062 122.667 42.0342 115.405 42.118L107.753 42.2018L104.625 39.0457C100.77 35.1635 97.335 32.6777 92.5869 30.3037C88.6209 28.3207 85.2693 27.1477 80.9123 26.198C78.4266 25.6395 77.2535 25.5836 71.5 25.5836C65.7186 25.5836 64.6014 25.6395 62.0039 26.198C52.3123 28.3207 43.8217 33.0408 37.4258 39.8557L35.2193 42.2018L27.5945 42.118C20.3328 42.0342 19.9139 42.0062 18.9922 41.4197C17.0092 40.1908 16.8975 39.7998 16.8137 31.9516L16.7299 24.9691L18.1264 24.215C21.3383 22.5672 23.5168 20.0535 24.5781 16.8695C25.1088 15.3334 25.1926 14.5514 25.0809 12.1773C24.9971 9.55196 24.9133 9.13301 23.9637 7.23378C22.3438 3.96602 19.7742 1.64784 16.5344 0.530655C14.6072 -0.139648 10.5016 -0.167587 8.68613 0.474808ZM56.5576 63.7914C67.4781 69.1539 67.143 68.8467 66.9754 72.4775C66.8916 74.293 66.6682 75.1029 65.9699 76.6111C64.7969 79.1248 62.3949 81.5547 59.8533 82.7557C58.0658 83.5936 57.7865 83.6494 54.7143 83.6494C51.5582 83.6494 51.4744 83.6215 49.3238 82.5881C46.6426 81.2475 44.4641 79.0969 43.291 76.6391C42.2018 74.3768 41.8107 71.2207 41.9504 66.0537C42.0621 61.6687 42.3693 60.7191 43.9334 59.7695C45.8047 58.6244 46.4191 58.8199 56.5576 63.7914ZM99.0666 59.7695C100.631 60.7191 100.938 61.6687 101.05 66.0537C101.189 71.1928 100.798 74.4326 99.709 76.7228C98.5918 79.1248 96.134 81.5826 93.6482 82.7557C91.8607 83.5936 91.5814 83.6494 88.5092 83.6494C85.3531 83.6494 85.2693 83.6215 83.1188 82.5881C78.8455 80.4654 76.248 76.7508 76.0525 72.4775C75.857 68.8746 75.5219 69.1539 86.3865 63.8193C96.4691 58.8478 97.1953 58.6244 99.0666 59.7695Z" fill="white" fill-opacity="0.5"/>
</svg>
